<?xml version="1.0" standalone="no"?><!DOCTYPE svg PUBLIC "-//W3C//DTD SVG 1.1//EN" "http://www.w3.org/Graphics/SVG/1.1/DTD/svg11.dtd"><svg t="1748347266195" class="icon" viewBox="0 0 1024 1024" version="1.1" xmlns="http://www.w3.org/2000/svg" p-id="3151" xmlns:xlink="http://www.w3.org/1999/xlink" width="200" height="200"><path d="M792.486957 202.573913c-11.130435-11.130435-24.486957-13.356522-35.617392-2.226087L445.217391 512c-11.130435 11.130435-11.130435 24.486957 0 37.843478 11.130435 11.130435 31.165217-2.226087 44.521739-15.582608l289.391305-289.391305c11.130435-11.130435 24.486957-28.93913 13.356522-42.295652zM779.130435 489.73913c-17.808696 0-22.26087 4.452174-22.26087 22.26087v244.869565c0 17.808696-26.713043 44.521739-44.521739 44.521739H311.652174c-17.808696 0-44.521739-26.713043-44.521739-44.521739V267.130435c0-17.808696 26.713043-44.521739 44.521739-44.521739h200.347826c17.808696 0 46.747826 2.226087 46.747826-13.356522 0-17.808696-31.165217-31.165217-46.747826-31.165217H282.713043C249.321739 178.086957 222.608696 204.8 222.608696 238.191304v545.391305c0 33.391304 26.713043 60.104348 60.104347 60.104348h456.347827c33.391304 0 60.104348-26.713043 60.104347-60.104348L801.391304 512c0-15.582609 0-15.582609-22.260869-22.26087z" p-id="3152" fill="#ffffff"></path></svg>